<?xml version="1.0" encoding="UTF-8"?>
<svg xmlns="http://www.w3.org/2000/svg" xmlns:xlink="http://www.w3.org/1999/xlink" width="24px" height="px" viewBox="0 0 24 24" version="1.1">
<g id="surface1">
<path style=" stroke:none;fill-rule:nonzero;fill:rgb(27.843137%,27.843137%,27.843137%);fill-opacity:1;" d="M 8.714844 19.734375 C 8.550781 19.664062 8.355469 19.742188 8.285156 19.910156 C 8.214844 20.074219 8.292969 20.269531 8.460938 20.339844 C 9.582031 20.816406 10.773438 21.058594 12 21.058594 C 12.21875 21.058594 12.4375 21.050781 12.652344 21.035156 C 12.707031 21.03125 12.757812 21.027344 12.8125 21.019531 C 13.625 20.949219 14.421875 20.769531 15.179688 20.484375 C 16.664062 19.925781 17.980469 18.984375 18.992188 17.757812 C 19.132812 17.585938 19.265625 17.414062 19.394531 17.234375 C 20.214844 16.074219 20.753906 14.742188 20.960938 13.332031 C 20.976562 13.226562 20.988281 13.117188 21 13.007812 C 21 13.007812 21 13.007812 21 13.003906 C 21.039062 12.675781 21.058594 12.335938 21.058594 12 C 21.058594 11.515625 21.019531 11.03125 20.941406 10.554688 C 20.65625 8.761719 19.84375 7.113281 18.589844 5.785156 C 18.316406 5.496094 18.027344 5.226562 17.726562 4.980469 C 17.550781 4.835938 17.371094 4.703125 17.191406 4.574219 C 17.144531 4.542969 17.097656 4.511719 17.050781 4.480469 C 16.980469 4.429688 16.90625 4.382812 16.832031 4.335938 C 16.640625 4.214844 16.449219 4.101562 16.25 3.996094 C 16.183594 3.964844 16.121094 3.929688 16.054688 3.894531 C 16.050781 3.894531 16.046875 3.890625 16.042969 3.890625 C 15.910156 3.824219 15.777344 3.761719 15.640625 3.703125 C 15.597656 3.683594 15.550781 3.664062 15.507812 3.644531 C 15.019531 3.441406 14.511719 3.277344 13.988281 3.160156 C 13.339844 3.015625 12.671875 2.941406 12 2.941406 C 11.597656 2.941406 11.195312 2.96875 10.804688 3.019531 C 8.644531 3.304688 6.65625 4.367188 5.210938 6.003906 C 3.882812 7.503906 3.097656 9.394531 2.964844 11.378906 C 2.949219 11.585938 2.941406 11.792969 2.941406 12 C 2.941406 12.160156 2.945312 12.320312 2.953125 12.480469 C 2.980469 12.964844 3.042969 13.441406 3.144531 13.910156 C 3.515625 15.644531 4.386719 17.222656 5.664062 18.472656 C 5.792969 18.597656 6 18.597656 6.128906 18.46875 C 6.253906 18.335938 6.253906 18.128906 6.121094 18.003906 C 5.148438 17.050781 4.429688 15.890625 4.011719 14.613281 C 4.289062 14.757812 4.613281 14.789062 4.910156 14.699219 C 5.144531 14.628906 5.339844 14.492188 5.496094 14.382812 C 5.71875 14.222656 5.945312 14.066406 6.167969 13.90625 L 6.222656 13.867188 C 6.328125 13.792969 6.527344 13.652344 6.652344 13.675781 C 6.746094 13.695312 6.839844 13.820312 6.945312 13.960938 C 7.066406 14.117188 7.199219 14.296875 7.402344 14.414062 C 7.757812 14.625 8.167969 14.5625 8.519531 14.476562 C 8.773438 14.414062 9.027344 14.34375 9.273438 14.261719 C 9.328125 14.453125 9.410156 14.625 9.480469 14.769531 C 9.542969 14.894531 9.601562 15.019531 9.664062 15.144531 C 9.703125 15.230469 9.746094 15.3125 9.753906 15.378906 C 9.765625 15.476562 9.726562 15.601562 9.683594 15.734375 C 9.621094 15.925781 9.554688 16.140625 9.589844 16.386719 C 9.660156 16.855469 10.066406 17.128906 10.363281 17.328125 L 10.378906 17.335938 C 10.925781 17.703125 11.417969 18.148438 11.84375 18.65625 C 12.003906 18.851562 12.164062 19.066406 12.230469 19.300781 C 12.292969 19.511719 12.285156 19.761719 12.277344 20.023438 C 12.273438 20.144531 12.269531 20.269531 12.269531 20.398438 C 12.179688 20.398438 12.089844 20.402344 12 20.402344 C 10.859375 20.402344 9.753906 20.175781 8.714844 19.734375 Z M 18.855469 14.046875 C 18.808594 13.921875 18.761719 13.804688 18.761719 13.710938 C 18.761719 13.5625 18.878906 13.398438 19.105469 13.210938 C 19.199219 13.136719 19.234375 13.125 19.242188 13.125 C 19.257812 13.125 19.304688 13.140625 19.335938 13.148438 L 19.355469 13.15625 C 19.65625 13.25 19.976562 13.300781 20.300781 13.308594 C 20.296875 13.316406 20.296875 13.324219 20.296875 13.335938 C 20.285156 13.40625 20.273438 13.476562 20.257812 13.546875 C 20.257812 13.554688 20.253906 13.566406 20.253906 13.574219 C 20.242188 13.640625 20.230469 13.703125 20.214844 13.769531 C 20.210938 13.78125 20.207031 13.796875 20.207031 13.8125 C 20.191406 13.878906 20.175781 13.949219 20.15625 14.015625 C 20.15625 14.03125 20.152344 14.046875 20.144531 14.0625 C 20.128906 14.132812 20.109375 14.199219 20.09375 14.269531 C 20.089844 14.273438 20.089844 14.273438 20.089844 14.277344 C 20.070312 14.347656 20.050781 14.414062 20.027344 14.484375 C 20.023438 14.5 20.019531 14.515625 20.015625 14.53125 C 19.992188 14.597656 19.972656 14.664062 19.949219 14.730469 C 19.945312 14.742188 19.941406 14.757812 19.933594 14.769531 C 19.914062 14.832031 19.890625 14.894531 19.867188 14.957031 C 19.863281 14.964844 19.859375 14.972656 19.859375 14.980469 C 19.832031 15.046875 19.804688 15.113281 19.777344 15.179688 C 19.773438 15.195312 19.765625 15.210938 19.761719 15.226562 C 19.734375 15.292969 19.707031 15.355469 19.675781 15.421875 C 19.671875 15.429688 19.667969 15.441406 19.664062 15.449219 C 19.636719 15.507812 19.609375 15.570312 19.582031 15.628906 C 19.574219 15.640625 19.570312 15.652344 19.5625 15.664062 C 19.53125 15.726562 19.5 15.792969 19.46875 15.855469 C 19.460938 15.867188 19.453125 15.882812 19.445312 15.894531 C 19.414062 15.960938 19.378906 16.023438 19.34375 16.085938 C 19.339844 16.089844 19.339844 16.09375 19.339844 16.09375 C 19.304688 16.15625 19.269531 16.21875 19.230469 16.28125 C 19.222656 16.292969 19.21875 16.304688 19.210938 16.316406 C 19.171875 16.378906 19.136719 16.441406 19.097656 16.5 C 19.089844 16.511719 19.082031 16.523438 19.074219 16.535156 C 19.039062 16.59375 19 16.648438 18.960938 16.707031 C 18.957031 16.710938 18.953125 16.71875 18.949219 16.722656 C 18.910156 16.785156 18.867188 16.84375 18.824219 16.902344 C 18.820312 16.910156 18.816406 16.914062 18.808594 16.921875 L 18.730469 16.75 C 18.625 16.527344 18.519531 16.296875 18.472656 16.066406 C 18.429688 15.847656 18.453125 15.648438 18.535156 15.507812 C 18.570312 15.449219 18.621094 15.390625 18.671875 15.324219 C 18.785156 15.1875 18.929688 15.015625 18.976562 14.78125 C 19.035156 14.496094 18.9375 14.246094 18.855469 14.046875 Z M 15.152344 8.429688 C 15.109375 8.207031 14.988281 8.039062 14.890625 7.902344 L 14.851562 7.84375 C 14.601562 7.492188 14.351562 7.136719 14.097656 6.785156 C 14.039062 6.699219 13.976562 6.613281 13.957031 6.539062 C 13.941406 6.480469 13.941406 6.402344 13.941406 6.332031 C 13.945312 5.871094 14.015625 5.414062 14.089844 4.929688 C 14.140625 4.589844 14.195312 4.246094 14.226562 3.898438 C 14.230469 3.898438 14.238281 3.902344 14.246094 3.902344 C 14.328125 3.925781 14.410156 3.949219 14.488281 3.972656 C 14.5 3.976562 14.511719 3.980469 14.523438 3.984375 C 14.605469 4.011719 14.6875 4.039062 14.769531 4.066406 C 14.777344 4.070312 14.78125 4.070312 14.789062 4.074219 C 14.871094 4.101562 14.953125 4.132812 15.035156 4.164062 C 15.039062 4.167969 15.042969 4.167969 15.046875 4.167969 C 15.128906 4.203125 15.210938 4.234375 15.289062 4.269531 C 15.300781 4.273438 15.308594 4.277344 15.320312 4.28125 C 15.398438 4.316406 15.472656 4.351562 15.550781 4.386719 C 15.5625 4.390625 15.574219 4.398438 15.585938 4.402344 C 15.660156 4.4375 15.734375 4.476562 15.808594 4.511719 C 15.820312 4.519531 15.832031 4.523438 15.84375 4.53125 C 15.917969 4.570312 15.992188 4.609375 16.066406 4.652344 C 16.074219 4.65625 16.082031 4.660156 16.089844 4.664062 C 16.167969 4.707031 16.242188 4.753906 16.316406 4.796875 C 16.320312 4.800781 16.320312 4.800781 16.324219 4.800781 C 16.398438 4.847656 16.472656 4.894531 16.546875 4.941406 C 16.554688 4.945312 16.558594 4.949219 16.5625 4.953125 C 16.636719 5 16.707031 5.046875 16.777344 5.097656 C 16.785156 5.101562 16.792969 5.109375 16.804688 5.117188 C 16.871094 5.164062 16.941406 5.214844 17.007812 5.261719 C 17.015625 5.269531 17.027344 5.277344 17.035156 5.285156 C 17.101562 5.335938 17.167969 5.386719 17.234375 5.4375 C 17.242188 5.445312 17.25 5.453125 17.261719 5.460938 C 17.328125 5.515625 17.390625 5.566406 17.457031 5.625 C 17.460938 5.628906 17.46875 5.632812 17.472656 5.636719 C 17.609375 5.753906 17.738281 5.875 17.867188 6 C 17.871094 6.003906 17.878906 6.011719 17.882812 6.015625 C 17.945312 6.074219 18.003906 6.136719 18.0625 6.199219 C 18.070312 6.207031 18.078125 6.214844 18.085938 6.222656 C 18.144531 6.28125 18.199219 6.34375 18.253906 6.40625 C 18.265625 6.414062 18.273438 6.425781 18.28125 6.433594 C 18.335938 6.496094 18.390625 6.558594 18.445312 6.625 C 18.449219 6.632812 18.457031 6.640625 18.464844 6.648438 C 18.519531 6.714844 18.574219 6.78125 18.625 6.847656 C 18.628906 6.855469 18.632812 6.859375 18.636719 6.863281 C 18.691406 6.933594 18.746094 7.003906 18.796875 7.074219 C 18.796875 7.078125 18.796875 7.078125 18.800781 7.078125 C 18.851562 7.148438 18.902344 7.222656 18.949219 7.292969 C 18.957031 7.300781 18.960938 7.308594 18.96875 7.316406 C 19.015625 7.386719 19.058594 7.457031 19.105469 7.527344 C 19.113281 7.539062 19.117188 7.550781 19.125 7.558594 C 19.167969 7.628906 19.210938 7.703125 19.253906 7.773438 C 19.261719 7.785156 19.265625 7.796875 19.273438 7.804688 C 19.316406 7.878906 19.355469 7.953125 19.398438 8.027344 C 19.402344 8.035156 19.40625 8.042969 19.410156 8.050781 C 19.453125 8.128906 19.492188 8.207031 19.53125 8.285156 C 19.535156 8.285156 19.535156 8.289062 19.535156 8.292969 C 19.574219 8.371094 19.613281 8.453125 19.652344 8.53125 C 19.652344 8.539062 19.65625 8.542969 19.65625 8.546875 C 19.691406 8.625 19.726562 8.707031 19.761719 8.785156 C 19.765625 8.796875 19.769531 8.804688 19.773438 8.816406 C 19.804688 8.894531 19.835938 8.972656 19.867188 9.050781 C 19.871094 9.0625 19.875 9.074219 19.878906 9.085938 C 19.910156 9.164062 19.9375 9.242188 19.964844 9.324219 C 19.96875 9.335938 19.972656 9.347656 19.976562 9.359375 C 20.003906 9.441406 20.03125 9.519531 20.054688 9.601562 C 20.058594 9.613281 20.058594 9.621094 20.0625 9.628906 C 20.085938 9.714844 20.113281 9.800781 20.132812 9.886719 C 20.132812 9.890625 20.132812 9.890625 20.136719 9.890625 C 20.15625 9.976562 20.179688 10.0625 20.199219 10.152344 C 20.199219 10.15625 20.199219 10.164062 20.203125 10.167969 C 20.191406 10.171875 20.175781 10.171875 20.164062 10.175781 C 19.949219 10.214844 19.804688 10.355469 19.703125 10.453125 C 19.664062 10.492188 19.625 10.53125 19.59375 10.550781 C 19.503906 10.617188 19.34375 10.613281 19.183594 10.550781 C 19.03125 10.484375 18.882812 10.375 18.726562 10.253906 C 18.695312 10.230469 18.660156 10.203125 18.628906 10.179688 C 18.359375 9.980469 18.132812 9.914062 17.957031 9.914062 C 17.792969 9.914062 17.671875 9.96875 17.59375 10.019531 C 17.5 10.082031 17.4375 10.15625 17.386719 10.21875 C 17.367188 10.238281 17.339844 10.273438 17.328125 10.28125 C 17.320312 10.285156 17.300781 10.289062 17.253906 10.289062 C 17.0625 10.28125 16.871094 10.207031 16.726562 10.082031 C 16.671875 10.035156 16.617188 9.976562 16.558594 9.914062 C 16.496094 9.847656 16.433594 9.78125 16.359375 9.714844 C 16.128906 9.511719 15.871094 9.414062 15.625 9.445312 C 15.535156 9.453125 15.457031 9.480469 15.394531 9.503906 C 15.363281 9.511719 15.332031 9.523438 15.308594 9.527344 C 15.214844 9.546875 15.09375 9.46875 15.070312 9.375 C 15.050781 9.289062 15.082031 9.167969 15.109375 9.039062 C 15.152344 8.859375 15.199219 8.65625 15.152344 8.429688 Z M 10.742188 16.792969 L 10.726562 16.78125 C 10.511719 16.636719 10.265625 16.472656 10.238281 16.289062 C 10.222656 16.195312 10.265625 16.070312 10.308594 15.933594 C 10.367188 15.746094 10.4375 15.535156 10.402344 15.292969 C 10.378906 15.121094 10.308594 14.976562 10.253906 14.859375 C 10.191406 14.734375 10.132812 14.609375 10.070312 14.484375 C 9.949219 14.238281 9.859375 14.035156 9.875 13.847656 C 9.882812 13.734375 9.835938 13.628906 9.746094 13.558594 C 9.65625 13.492188 9.539062 13.472656 9.433594 13.511719 C 9.089844 13.640625 8.726562 13.75 8.363281 13.839844 C 8.136719 13.894531 7.886719 13.941406 7.734375 13.851562 C 7.644531 13.796875 7.558594 13.6875 7.46875 13.566406 C 7.316406 13.359375 7.121094 13.105469 6.785156 13.035156 C 6.382812 12.949219 6.03125 13.199219 5.839844 13.335938 L 5.789062 13.371094 C 5.566406 13.53125 5.339844 13.6875 5.117188 13.847656 C 4.988281 13.9375 4.855469 14.03125 4.722656 14.074219 C 4.570312 14.117188 4.398438 14.089844 4.265625 14.003906 C 4.214844 13.96875 4.160156 13.917969 4.105469 13.867188 C 4.015625 13.785156 3.917969 13.695312 3.789062 13.621094 C 3.777344 13.617188 3.761719 13.609375 3.75 13.601562 C 3.75 13.59375 3.746094 13.585938 3.746094 13.578125 C 3.742188 13.550781 3.734375 13.519531 3.730469 13.492188 C 3.722656 13.449219 3.714844 13.410156 3.710938 13.367188 C 3.703125 13.339844 3.699219 13.308594 3.695312 13.277344 C 3.6875 13.238281 3.683594 13.199219 3.675781 13.15625 C 3.671875 13.125 3.667969 13.097656 3.664062 13.066406 C 3.660156 13.027344 3.65625 12.984375 3.652344 12.945312 C 3.648438 12.914062 3.644531 12.882812 3.640625 12.855469 C 3.636719 12.8125 3.632812 12.769531 3.628906 12.730469 C 3.628906 12.699219 3.625 12.671875 3.621094 12.640625 C 3.617188 12.597656 3.617188 12.554688 3.613281 12.511719 C 3.613281 12.484375 3.609375 12.457031 3.609375 12.425781 C 3.605469 12.378906 3.605469 12.332031 3.601562 12.285156 C 3.601562 12.261719 3.601562 12.238281 3.601562 12.214844 C 3.597656 12.140625 3.597656 12.070312 3.597656 12 C 3.597656 11.539062 3.636719 11.089844 3.707031 10.648438 C 3.726562 10.519531 3.75 10.394531 3.777344 10.273438 C 3.804688 10.148438 3.832031 10.023438 3.863281 9.902344 C 3.898438 9.78125 3.929688 9.65625 3.96875 9.539062 C 4.023438 9.359375 4.085938 9.179688 4.152344 9.003906 C 4.265625 8.710938 4.390625 8.429688 4.535156 8.152344 C 4.59375 8.042969 4.652344 7.933594 4.714844 7.824219 C 5.300781 6.804688 6.097656 5.910156 7.050781 5.214844 C 7.054688 5.210938 7.058594 5.207031 7.0625 5.207031 C 7.285156 5.042969 7.519531 4.890625 7.757812 4.75 C 7.804688 4.722656 7.851562 4.695312 7.898438 4.667969 C 7.96875 4.628906 8.042969 4.589844 8.113281 4.550781 C 8.226562 4.492188 8.339844 4.4375 8.453125 4.382812 C 8.46875 4.375 8.484375 4.367188 8.503906 4.359375 C 9.246094 4.019531 10.046875 3.78125 10.886719 3.671875 C 11.253906 3.625 11.628906 3.597656 12 3.597656 C 12.53125 3.597656 13.058594 3.648438 13.578125 3.746094 C 13.550781 4.101562 13.5 4.457031 13.441406 4.828125 C 13.367188 5.316406 13.289062 5.816406 13.285156 6.324219 C 13.28125 6.449219 13.285156 6.582031 13.324219 6.71875 C 13.375 6.898438 13.480469 7.046875 13.5625 7.164062 C 13.816406 7.519531 14.066406 7.871094 14.316406 8.226562 L 14.355469 8.28125 C 14.425781 8.378906 14.492188 8.476562 14.511719 8.558594 C 14.527344 8.644531 14.5 8.765625 14.46875 8.890625 C 14.425781 9.074219 14.375 9.289062 14.429688 9.519531 C 14.53125 9.960938 14.992188 10.261719 15.4375 10.171875 C 15.5 10.160156 15.554688 10.140625 15.601562 10.125 C 15.640625 10.113281 15.679688 10.101562 15.703125 10.097656 C 15.753906 10.089844 15.839844 10.132812 15.921875 10.203125 C 15.972656 10.25 16.019531 10.304688 16.074219 10.359375 C 16.140625 10.433594 16.214844 10.511719 16.296875 10.582031 C 16.558594 10.804688 16.890625 10.933594 17.234375 10.945312 C 17.339844 10.949219 17.5 10.941406 17.652344 10.855469 C 17.761719 10.792969 17.835938 10.703125 17.886719 10.640625 C 17.90625 10.617188 17.9375 10.582031 17.949219 10.574219 C 17.964844 10.566406 18.058594 10.578125 18.234375 10.707031 C 18.265625 10.730469 18.296875 10.753906 18.328125 10.78125 C 18.511719 10.917969 18.699219 11.0625 18.933594 11.15625 C 19.09375 11.222656 19.257812 11.257812 19.414062 11.257812 C 19.617188 11.257812 19.808594 11.203125 19.96875 11.09375 C 20.042969 11.039062 20.105469 10.980469 20.160156 10.925781 C 20.199219 10.890625 20.257812 10.828125 20.28125 10.820312 C 20.289062 10.820312 20.304688 10.824219 20.320312 10.832031 C 20.375 11.21875 20.402344 11.609375 20.402344 12 C 20.402344 12.222656 20.390625 12.441406 20.375 12.65625 C 20.09375 12.65625 19.808594 12.613281 19.546875 12.53125 L 19.53125 12.527344 C 19.453125 12.5 19.351562 12.46875 19.230469 12.472656 C 19.007812 12.476562 18.832031 12.589844 18.695312 12.703125 C 18.304688 13.019531 18.109375 13.355469 18.105469 13.710938 C 18.105469 13.929688 18.179688 14.121094 18.246094 14.289062 C 18.304688 14.433594 18.351562 14.558594 18.335938 14.648438 C 18.320312 14.722656 18.246094 14.8125 18.167969 14.910156 C 18.101562 14.988281 18.027344 15.078125 17.96875 15.179688 C 17.804688 15.457031 17.753906 15.820312 17.828125 16.195312 C 17.890625 16.503906 18.019531 16.78125 18.132812 17.03125 L 18.351562 17.5 C 17.554688 18.421875 16.566406 19.160156 15.464844 19.660156 C 15.484375 19.410156 15.496094 19.160156 15.492188 18.910156 C 15.492188 18.851562 15.492188 18.792969 15.488281 18.734375 C 15.484375 18.511719 15.476562 18.300781 15.511719 18.105469 C 15.5625 17.796875 15.714844 17.503906 15.875 17.195312 C 15.953125 17.046875 16.03125 16.894531 16.101562 16.738281 C 16.410156 16.035156 16.402344 15.367188 16.074219 14.914062 C 15.800781 14.539062 15.382812 14.375 15.011719 14.234375 C 14.914062 14.195312 14.824219 14.160156 14.734375 14.125 C 14.347656 13.957031 13.988281 13.703125 13.605469 13.4375 C 13.015625 13.027344 12.410156 12.601562 11.6875 12.5 C 11.699219 12.179688 11.667969 11.804688 11.449219 11.492188 C 11.332031 11.328125 11.183594 11.210938 11.054688 11.105469 L 11.050781 11.101562 C 10.648438 10.78125 10.242188 10.394531 10.25 9.960938 C 10.253906 9.789062 10.328125 9.601562 10.40625 9.402344 C 10.507812 9.148438 10.621094 8.859375 10.609375 8.539062 C 10.59375 8.167969 10.414062 7.84375 10.257812 7.558594 C 10.097656 7.269531 9.957031 7.019531 10.011719 6.792969 C 10.054688 6.625 10.210938 6.46875 10.375 6.304688 C 10.429688 6.25 10.480469 6.195312 10.535156 6.140625 C 10.878906 5.769531 11.117188 5.296875 11.222656 4.773438 C 11.261719 4.597656 11.144531 4.421875 10.96875 4.386719 C 10.789062 4.351562 10.617188 4.464844 10.582031 4.640625 C 10.496094 5.050781 10.316406 5.414062 10.054688 5.695312 C 10.007812 5.742188 9.960938 5.789062 9.910156 5.839844 C 9.699219 6.050781 9.460938 6.289062 9.375 6.636719 C 9.257812 7.113281 9.484375 7.519531 9.683594 7.875 C 9.820312 8.121094 9.945312 8.347656 9.953125 8.566406 C 9.960938 8.746094 9.882812 8.949219 9.796875 9.160156 C 9.707031 9.390625 9.601562 9.65625 9.59375 9.949219 C 9.578125 10.667969 10.113281 11.195312 10.640625 11.613281 L 10.644531 11.617188 C 10.75 11.703125 10.851562 11.78125 10.914062 11.871094 C 11.066406 12.082031 11.042969 12.417969 11.007812 12.773438 C 10.996094 12.867188 11.027344 12.957031 11.089844 13.027344 C 11.152344 13.097656 11.242188 13.132812 11.335938 13.132812 C 11.34375 13.132812 11.351562 13.132812 11.359375 13.132812 C 12.023438 13.132812 12.609375 13.542969 13.230469 13.976562 C 13.621094 14.25 14.027344 14.53125 14.472656 14.726562 C 14.574219 14.769531 14.675781 14.808594 14.773438 14.84375 C 15.089844 14.964844 15.386719 15.078125 15.542969 15.296875 C 15.808594 15.667969 15.601562 16.242188 15.5 16.472656 C 15.4375 16.613281 15.367188 16.746094 15.292969 16.890625 C 15.117188 17.234375 14.933594 17.585938 14.863281 17.996094 C 14.820312 18.253906 14.828125 18.507812 14.832031 18.75 C 14.835938 18.808594 14.835938 18.863281 14.835938 18.921875 C 14.839844 19.257812 14.820312 19.597656 14.769531 19.933594 C 14.761719 19.9375 14.753906 19.941406 14.746094 19.945312 C 14.6875 19.964844 14.628906 19.984375 14.566406 20.003906 C 14.558594 20.007812 14.546875 20.011719 14.539062 20.011719 C 14.472656 20.035156 14.40625 20.054688 14.339844 20.074219 C 14.324219 20.078125 14.308594 20.082031 14.292969 20.085938 C 14.226562 20.105469 14.160156 20.121094 14.09375 20.140625 C 14.09375 20.140625 14.089844 20.140625 14.089844 20.140625 C 14.023438 20.160156 13.953125 20.175781 13.886719 20.191406 C 13.871094 20.195312 13.855469 20.199219 13.839844 20.203125 C 13.769531 20.214844 13.703125 20.230469 13.636719 20.242188 C 13.625 20.246094 13.617188 20.246094 13.605469 20.25 C 13.542969 20.261719 13.484375 20.273438 13.425781 20.28125 C 13.410156 20.285156 13.394531 20.289062 13.378906 20.289062 C 13.3125 20.300781 13.246094 20.3125 13.175781 20.320312 C 13.160156 20.324219 13.148438 20.324219 13.128906 20.328125 C 13.070312 20.335938 13.007812 20.34375 12.949219 20.347656 C 12.941406 20.351562 12.933594 20.351562 12.925781 20.351562 C 12.921875 20.253906 12.925781 20.152344 12.929688 20.046875 C 12.941406 19.746094 12.949219 19.429688 12.859375 19.121094 C 12.761719 18.769531 12.542969 18.476562 12.34375 18.238281 C 11.882812 17.679688 11.34375 17.195312 10.742188 16.792969 Z M 10.742188 16.792969 "/>
<path style=" stroke:none;fill-rule:nonzero;fill:rgb(27.843137%,27.843137%,27.843137%);fill-opacity:1;" d="M 7.296875 18.992188 C 7.285156 18.972656 7.273438 18.957031 7.257812 18.941406 C 7.242188 18.925781 7.226562 18.914062 7.207031 18.902344 C 7.191406 18.890625 7.171875 18.878906 7.152344 18.871094 C 7.132812 18.863281 7.109375 18.855469 7.089844 18.851562 C 7.046875 18.84375 7.003906 18.84375 6.960938 18.851562 C 6.941406 18.855469 6.921875 18.863281 6.902344 18.871094 C 6.878906 18.878906 6.863281 18.890625 6.84375 18.902344 C 6.824219 18.914062 6.808594 18.925781 6.792969 18.941406 C 6.777344 18.957031 6.765625 18.972656 6.753906 18.992188 C 6.742188 19.011719 6.730469 19.03125 6.722656 19.050781 C 6.714844 19.070312 6.707031 19.089844 6.703125 19.109375 C 6.699219 19.132812 6.699219 19.152344 6.699219 19.175781 C 6.699219 19.261719 6.734375 19.347656 6.792969 19.40625 C 6.808594 19.421875 6.824219 19.4375 6.84375 19.449219 C 6.863281 19.460938 6.878906 19.46875 6.902344 19.476562 C 6.921875 19.484375 6.941406 19.492188 6.960938 19.496094 C 6.984375 19.5 7.003906 19.503906 7.027344 19.503906 C 7.046875 19.503906 7.070312 19.5 7.089844 19.496094 C 7.109375 19.492188 7.132812 19.484375 7.152344 19.476562 C 7.171875 19.46875 7.191406 19.460938 7.207031 19.449219 C 7.226562 19.4375 7.242188 19.421875 7.257812 19.40625 C 7.273438 19.390625 7.285156 19.375 7.296875 19.355469 C 7.308594 19.339844 7.320312 19.320312 7.328125 19.300781 C 7.335938 19.28125 7.34375 19.261719 7.347656 19.238281 C 7.351562 19.21875 7.355469 19.195312 7.355469 19.175781 C 7.355469 19.152344 7.351562 19.132812 7.347656 19.109375 C 7.34375 19.089844 7.335938 19.070312 7.328125 19.050781 C 7.320312 19.03125 7.308594 19.011719 7.296875 18.992188 Z M 7.296875 18.992188 "/>
</g>
</svg>
