<?xml version="1.0" encoding="UTF-8"?>
<svg xmlns="http://www.w3.org/2000/svg" xmlns:xlink="http://www.w3.org/1999/xlink" width="24px" height="px" viewBox="0 0 24 24" version="1.1">
<g id="surface1">
<path style=" stroke:none;fill-rule:nonzero;fill:rgb(27.843137%,27.843137%,27.843137%);fill-opacity:1;" d="M 10.652344 10.15625 C 10.351562 9.816406 9.914062 9.664062 9.339844 9.691406 C 7.707031 9.78125 7.097656 9.5625 7.054688 9.546875 C 6.953125 9.5 6.832031 9.507812 6.738281 9.574219 C 6.640625 9.640625 6.589844 9.753906 6.597656 9.871094 C 6.601562 9.9375 6.71875 11.472656 7.789062 12.375 C 8.285156 12.789062 8.902344 13 9.617188 13 C 9.753906 13 9.894531 12.992188 10.035156 12.980469 C 10.214844 12.960938 10.347656 12.796875 10.328125 12.617188 C 10.308594 12.4375 10.148438 12.308594 9.96875 12.328125 C 9.253906 12.402344 8.664062 12.25 8.214844 11.875 C 7.675781 11.421875 7.433594 10.738281 7.328125 10.285156 C 7.730469 10.351562 8.382812 10.402344 9.375 10.347656 C 9.742188 10.328125 10 10.40625 10.160156 10.589844 C 10.335938 10.789062 10.382812 11.09375 10.382812 11.359375 C 9.632812 10.953125 8.972656 10.726562 8.921875 10.710938 C 8.75 10.652344 8.566406 10.746094 8.507812 10.917969 C 8.449219 11.089844 8.542969 11.277344 8.714844 11.332031 C 8.730469 11.339844 9.617188 11.640625 10.46875 12.167969 C 10.484375 12.179688 10.496094 12.1875 10.511719 12.195312 C 10.957031 12.476562 11.386719 12.820312 11.671875 13.214844 L 11.671875 15.707031 C 11.671875 15.890625 11.820312 16.035156 12 16.035156 C 12.179688 16.035156 12.328125 15.890625 12.328125 15.707031 L 12.328125 13.214844 C 12.617188 12.816406 13.050781 12.46875 13.5 12.1875 C 13.507812 12.183594 13.515625 12.179688 13.523438 12.175781 C 14.375 11.644531 15.265625 11.339844 15.285156 11.332031 C 15.457031 11.277344 15.550781 11.089844 15.492188 10.917969 C 15.4375 10.746094 15.25 10.652344 15.078125 10.710938 C 15.027344 10.730469 14.367188 10.953125 13.617188 11.359375 C 13.617188 11.09375 13.664062 10.789062 13.839844 10.589844 C 14 10.40625 14.257812 10.328125 14.625 10.347656 C 15.617188 10.402344 16.269531 10.351562 16.671875 10.285156 C 16.566406 10.734375 16.328125 11.417969 15.789062 11.871094 C 15.339844 12.25 14.746094 12.402344 14.03125 12.328125 C 13.851562 12.308594 13.691406 12.4375 13.671875 12.617188 C 13.652344 12.800781 13.785156 12.960938 13.964844 12.980469 C 14.105469 12.996094 14.246094 13 14.382812 13 C 15.097656 13 15.714844 12.792969 16.210938 12.375 C 17.28125 11.472656 17.398438 9.9375 17.402344 9.871094 C 17.410156 9.757812 17.355469 9.644531 17.261719 9.582031 C 17.167969 9.515625 17.046875 9.503906 16.941406 9.550781 C 16.9375 9.550781 16.359375 9.785156 14.660156 9.695312 C 14.085938 9.664062 13.648438 9.820312 13.347656 10.15625 C 12.941406 10.617188 12.925781 11.285156 12.980469 11.742188 C 12.625 11.984375 12.28125 12.261719 12 12.578125 C 11.71875 12.261719 11.375 11.984375 11.019531 11.742188 C 11.074219 11.28125 11.058594 10.617188 10.652344 10.15625 Z M 10.652344 10.15625 "/>
<path style=" stroke:none;fill-rule:nonzero;fill:rgb(27.843137%,27.843137%,27.843137%);fill-opacity:1;" d="M 21.707031 11.136719 L 20.828125 10.933594 C 20.632812 9.316406 20.003906 7.796875 18.996094 6.515625 L 19.476562 5.746094 C 19.554688 5.617188 19.535156 5.449219 19.429688 5.339844 L 18.660156 4.570312 C 18.550781 4.464844 18.382812 4.445312 18.253906 4.523438 L 17.484375 5.003906 C 16.203125 3.996094 14.683594 3.367188 13.066406 3.171875 L 12.863281 2.292969 C 12.828125 2.144531 12.695312 2.039062 12.542969 2.039062 L 11.457031 2.039062 C 11.304688 2.039062 11.171875 2.144531 11.136719 2.292969 L 10.933594 3.171875 C 9.316406 3.367188 7.796875 3.996094 6.515625 5.003906 L 5.746094 4.523438 C 5.617188 4.445312 5.449219 4.464844 5.339844 4.570312 L 4.570312 5.339844 C 4.464844 5.449219 4.445312 5.617188 4.523438 5.746094 L 5.003906 6.515625 C 3.996094 7.796875 3.367188 9.316406 3.171875 10.933594 L 2.292969 11.136719 C 2.144531 11.171875 2.039062 11.304688 2.039062 11.457031 L 2.039062 12.542969 C 2.039062 12.695312 2.144531 12.828125 2.292969 12.863281 L 3.171875 13.066406 C 3.367188 14.683594 3.996094 16.203125 5.003906 17.488281 L 4.523438 18.253906 C 4.445312 18.382812 4.464844 18.550781 4.570312 18.660156 L 5.339844 19.429688 C 5.449219 19.535156 5.617188 19.554688 5.746094 19.476562 L 6.515625 18.996094 C 7.796875 20.003906 9.316406 20.632812 10.933594 20.828125 L 11.136719 21.707031 C 11.171875 21.855469 11.304688 21.960938 11.457031 21.960938 L 12.542969 21.960938 C 12.695312 21.960938 12.828125 21.855469 12.863281 21.707031 L 13.066406 20.828125 C 14.683594 20.632812 16.203125 20.003906 17.484375 18.996094 L 18.253906 19.476562 C 18.382812 19.554688 18.550781 19.535156 18.660156 19.429688 L 19.429688 18.660156 C 19.535156 18.550781 19.554688 18.382812 19.476562 18.253906 L 18.996094 17.484375 C 20.003906 16.203125 20.632812 14.683594 20.828125 13.066406 L 21.707031 12.863281 C 21.855469 12.828125 21.960938 12.695312 21.960938 12.542969 L 21.960938 11.457031 C 21.960938 11.304688 21.855469 11.171875 21.707031 11.136719 Z M 21.304688 12.28125 L 20.449219 12.480469 C 20.3125 12.511719 20.210938 12.628906 20.199219 12.769531 C 20.046875 14.421875 19.402344 15.972656 18.339844 17.253906 C 18.25 17.363281 18.242188 17.515625 18.316406 17.636719 L 18.78125 18.378906 L 18.378906 18.78125 L 17.636719 18.316406 C 17.515625 18.242188 17.359375 18.25 17.253906 18.339844 C 15.972656 19.402344 14.421875 20.046875 12.769531 20.199219 C 12.628906 20.210938 12.511719 20.3125 12.480469 20.453125 L 12.28125 21.304688 L 11.71875 21.304688 L 11.519531 20.453125 C 11.488281 20.3125 11.371094 20.210938 11.230469 20.199219 C 9.578125 20.046875 8.027344 19.402344 6.746094 18.339844 C 6.636719 18.25 6.484375 18.242188 6.363281 18.316406 L 5.621094 18.78125 L 5.21875 18.378906 L 5.683594 17.636719 C 5.757812 17.515625 5.75 17.363281 5.660156 17.253906 C 4.597656 15.972656 3.953125 14.421875 3.800781 12.769531 C 3.789062 12.628906 3.6875 12.511719 3.546875 12.480469 L 2.695312 12.28125 L 2.695312 11.71875 L 3.546875 11.519531 C 3.6875 11.488281 3.789062 11.371094 3.800781 11.230469 C 3.953125 9.578125 4.597656 8.027344 5.660156 6.746094 C 5.75 6.640625 5.757812 6.484375 5.683594 6.363281 L 5.21875 5.621094 L 5.621094 5.21875 L 6.363281 5.683594 C 6.484375 5.757812 6.636719 5.75 6.746094 5.660156 C 8.027344 4.597656 9.578125 3.953125 11.230469 3.800781 C 11.371094 3.789062 11.488281 3.6875 11.519531 3.550781 L 11.714844 2.695312 L 12.28125 2.695312 L 12.480469 3.550781 C 12.511719 3.6875 12.628906 3.789062 12.769531 3.800781 C 14.421875 3.953125 15.96875 4.597656 17.25 5.660156 C 17.359375 5.75 17.515625 5.757812 17.632812 5.683594 L 18.378906 5.21875 L 18.777344 5.621094 L 18.316406 6.363281 C 18.238281 6.484375 18.25 6.640625 18.339844 6.746094 C 19.402344 8.027344 20.042969 9.578125 20.199219 11.230469 C 20.210938 11.371094 20.3125 11.488281 20.449219 11.519531 L 21.304688 11.71875 Z M 21.304688 12.28125 "/>
<path style=" stroke:none;fill-rule:nonzero;fill:rgb(27.843137%,27.843137%,27.843137%);fill-opacity:1;" d="M 6.484375 15.78125 C 6.476562 15.761719 6.46875 15.742188 6.457031 15.722656 C 6.445312 15.707031 6.429688 15.6875 6.414062 15.675781 C 6.339844 15.597656 6.226562 15.5625 6.117188 15.585938 C 6.097656 15.589844 6.078125 15.59375 6.058594 15.601562 C 6.035156 15.609375 6.019531 15.621094 6 15.632812 C 5.980469 15.644531 5.964844 15.660156 5.949219 15.675781 C 5.933594 15.6875 5.921875 15.707031 5.910156 15.722656 C 5.898438 15.742188 5.886719 15.761719 5.878906 15.78125 C 5.871094 15.800781 5.863281 15.820312 5.859375 15.84375 C 5.855469 15.863281 5.855469 15.882812 5.855469 15.90625 C 5.855469 15.992188 5.890625 16.078125 5.949219 16.136719 C 5.964844 16.152344 5.980469 16.167969 6 16.179688 C 6.019531 16.191406 6.035156 16.199219 6.058594 16.207031 C 6.078125 16.21875 6.097656 16.222656 6.117188 16.226562 C 6.140625 16.230469 6.160156 16.234375 6.183594 16.234375 C 6.269531 16.234375 6.351562 16.199219 6.414062 16.136719 C 6.476562 16.078125 6.511719 15.992188 6.511719 15.90625 C 6.511719 15.882812 6.507812 15.863281 6.503906 15.84375 C 6.5 15.820312 6.492188 15.800781 6.484375 15.78125 Z M 6.484375 15.78125 "/>
<path style=" stroke:none;fill-rule:nonzero;fill:rgb(27.843137%,27.843137%,27.843137%);fill-opacity:1;" d="M 12 4.664062 C 7.957031 4.664062 4.664062 7.957031 4.664062 12 C 4.664062 13.058594 4.886719 14.082031 5.320312 15.035156 C 5.398438 15.199219 5.589844 15.273438 5.757812 15.199219 C 5.921875 15.125 5.992188 14.929688 5.917969 14.765625 C 5.523438 13.894531 5.320312 12.964844 5.320312 12 C 5.320312 8.316406 8.316406 5.320312 12 5.320312 C 15.683594 5.320312 18.679688 8.316406 18.679688 12 C 18.679688 15.683594 15.683594 18.679688 12 18.679688 C 10.152344 18.679688 8.4375 17.941406 7.160156 16.605469 C 7.035156 16.472656 6.828125 16.46875 6.699219 16.59375 C 6.566406 16.71875 6.5625 16.925781 6.6875 17.058594 C 8.085938 18.527344 9.972656 19.335938 12 19.335938 C 16.042969 19.335938 19.335938 16.042969 19.335938 12 C 19.335938 7.957031 16.042969 4.664062 12 4.664062 Z M 12 4.664062 "/>
</g>
</svg>
