<?xml version="1.0" encoding="UTF-8"?>
<svg xmlns="http://www.w3.org/2000/svg" xmlns:xlink="http://www.w3.org/1999/xlink" width="24px" height="px" viewBox="0 0 24 24" version="1.1">
<g id="surface1">
<path style=" stroke:none;fill-rule:nonzero;fill:rgb(27.843137%,27.843137%,27.843137%);fill-opacity:1;" d="M 4.890625 18.328125 C 4.972656 18.328125 5.054688 18.296875 5.117188 18.238281 C 5.25 18.113281 5.253906 17.90625 5.128906 17.773438 C 3.539062 16.105469 2.660156 13.921875 2.660156 11.621094 C 2.660156 9.59375 3.328125 7.683594 4.582031 6.09375 C 4.6875 5.964844 4.675781 5.777344 4.558594 5.660156 L 4.125 5.226562 L 6.917969 4.476562 L 6.167969 7.269531 L 5.875 6.976562 C 5.808594 6.910156 5.714844 6.875 5.621094 6.882812 C 5.523438 6.890625 5.4375 6.9375 5.378906 7.015625 C 4.382812 8.355469 3.859375 9.945312 3.859375 11.621094 C 3.859375 13.566406 4.582031 15.425781 5.898438 16.855469 C 6.023438 16.988281 6.230469 16.996094 6.363281 16.875 C 6.496094 16.75 6.503906 16.542969 6.382812 16.410156 C 5.179688 15.101562 4.515625 13.402344 4.515625 11.621094 C 4.515625 10.21875 4.917969 8.875 5.6875 7.71875 L 6.105469 8.136719 C 6.1875 8.21875 6.308594 8.25 6.421875 8.21875 C 6.535156 8.191406 6.625 8.101562 6.652344 7.988281 L 7.695312 4.097656 C 7.726562 3.984375 7.695312 3.863281 7.613281 3.78125 C 7.527344 3.695312 7.40625 3.664062 7.296875 3.695312 L 3.402344 4.738281 C 3.289062 4.769531 3.203125 4.855469 3.171875 4.96875 C 3.140625 5.082031 3.175781 5.203125 3.257812 5.285156 L 3.890625 5.921875 C 2.65625 7.578125 2.003906 9.542969 2.003906 11.621094 C 2.003906 14.089844 2.945312 16.433594 4.652344 18.226562 C 4.71875 18.292969 4.804688 18.328125 4.890625 18.328125 Z M 4.890625 18.328125 "/>
<path style=" stroke:none;fill-rule:nonzero;fill:rgb(27.843137%,27.843137%,27.843137%);fill-opacity:1;" d="M 21.949219 8.8125 C 21.890625 8.710938 21.785156 8.648438 21.667969 8.648438 L 20.695312 8.648438 C 20.660156 8.542969 20.625 8.433594 20.585938 8.328125 C 19.917969 6.503906 18.722656 4.941406 17.132812 3.808594 C 15.503906 2.652344 13.585938 2.039062 11.585938 2.039062 C 10.402344 2.039062 9.246094 2.253906 8.152344 2.675781 C 7.980469 2.742188 7.898438 2.929688 7.960938 3.101562 C 8.027344 3.269531 8.21875 3.351562 8.386719 3.289062 C 9.40625 2.894531 10.484375 2.695312 11.585938 2.695312 C 15.316406 2.695312 18.683594 5.050781 19.972656 8.554688 C 20.035156 8.726562 20.089844 8.898438 20.140625 9.066406 C 20.183594 9.207031 20.308594 9.304688 20.457031 9.304688 L 21.097656 9.304688 L 19.652344 11.808594 L 18.878906 10.46875 C 18.875 10.464844 18.875 10.460938 18.871094 10.457031 L 18.207031 9.304688 L 18.5 9.304688 C 18.609375 9.304688 18.710938 9.25 18.773438 9.160156 C 18.832031 9.070312 18.847656 8.960938 18.808594 8.859375 C 18.738281 8.671875 18.65625 8.484375 18.570312 8.300781 C 17.949219 7 16.980469 5.902344 15.769531 5.117188 C 14.523438 4.316406 13.078125 3.890625 11.585938 3.890625 C 10.636719 3.890625 9.707031 4.0625 8.828125 4.398438 C 8.660156 4.464844 8.574219 4.652344 8.636719 4.820312 C 8.703125 4.992188 8.894531 5.074219 9.0625 5.011719 C 9.867188 4.703125 10.71875 4.546875 11.585938 4.546875 C 14.300781 4.546875 16.808594 6.132812 17.976562 8.585938 C 17.988281 8.605469 17.996094 8.625 18.007812 8.648438 L 17.636719 8.648438 C 17.519531 8.648438 17.414062 8.710938 17.355469 8.8125 C 17.296875 8.914062 17.296875 9.039062 17.355469 9.140625 L 18.296875 10.773438 C 18.300781 10.777344 18.300781 10.78125 18.304688 10.785156 L 19.367188 12.628906 C 19.425781 12.730469 19.535156 12.792969 19.652344 12.792969 C 19.769531 12.792969 19.878906 12.730469 19.9375 12.628906 L 21.949219 9.140625 C 22.007812 9.039062 22.007812 8.914062 21.949219 8.8125 Z M 21.949219 8.8125 "/>
<path style=" stroke:none;fill-rule:nonzero;fill:rgb(27.843137%,27.843137%,27.843137%);fill-opacity:1;" d="M 6.476562 18.230469 C 6.429688 18.335938 6.441406 18.460938 6.511719 18.554688 L 8.863281 21.824219 C 8.925781 21.910156 9.027344 21.960938 9.128906 21.960938 C 9.140625 21.960938 9.152344 21.960938 9.164062 21.957031 C 9.28125 21.945312 9.382812 21.875 9.429688 21.765625 L 9.761719 21.027344 C 10.359375 21.144531 10.972656 21.203125 11.585938 21.203125 C 13.792969 21.203125 15.949219 20.429688 17.652344 19.03125 C 19.335938 17.652344 20.511719 15.726562 20.960938 13.613281 C 21 13.4375 20.886719 13.261719 20.707031 13.226562 C 20.53125 13.1875 20.355469 13.300781 20.320312 13.476562 C 19.449219 17.574219 15.777344 20.546875 11.589844 20.546875 C 10.929688 20.546875 10.277344 20.472656 9.644531 20.332031 C 9.492188 20.296875 9.335938 20.375 9.273438 20.519531 L 9.066406 20.980469 L 7.375 18.632812 L 10.253906 18.34375 L 10.054688 18.785156 C 10.011719 18.878906 10.015625 18.984375 10.0625 19.074219 C 10.109375 19.164062 10.199219 19.226562 10.296875 19.242188 C 10.722656 19.3125 11.15625 19.347656 11.589844 19.347656 C 15.117188 19.347656 18.195312 16.964844 19.074219 13.550781 C 19.117188 13.375 19.011719 13.195312 18.835938 13.152344 C 18.660156 13.105469 18.484375 13.210938 18.4375 13.386719 C 17.632812 16.511719 14.816406 18.695312 11.585938 18.695312 C 11.335938 18.695312 11.082031 18.679688 10.832031 18.65625 L 11.082031 18.09375 C 11.132812 17.988281 11.121094 17.863281 11.050781 17.769531 C 10.980469 17.671875 10.867188 17.621094 10.75 17.632812 L 6.742188 18.039062 C 6.625 18.050781 6.527344 18.121094 6.476562 18.230469 Z M 6.476562 18.230469 "/>
<path style=" stroke:none;fill-rule:nonzero;fill:rgb(27.843137%,27.843137%,27.843137%);fill-opacity:1;" d="M 13.925781 8.613281 C 13.925781 8.609375 13.921875 8.605469 13.921875 8.605469 C 13.894531 8.546875 13.867188 8.488281 13.835938 8.433594 C 13.347656 7.488281 12.636719 6.652344 11.777344 6.023438 C 11.773438 6.019531 11.773438 6.019531 11.773438 6.019531 C 11.757812 6.011719 11.746094 6.003906 11.730469 5.996094 C 11.730469 5.996094 11.730469 5.992188 11.726562 5.992188 C 11.710938 5.988281 11.699219 5.980469 11.683594 5.976562 C 11.683594 5.976562 11.683594 5.976562 11.679688 5.976562 C 11.667969 5.96875 11.652344 5.964844 11.636719 5.964844 C 11.632812 5.964844 11.628906 5.964844 11.625 5.960938 C 11.613281 5.960938 11.597656 5.957031 11.582031 5.957031 C 11.566406 5.957031 11.550781 5.960938 11.535156 5.960938 C 11.53125 5.964844 11.527344 5.964844 11.527344 5.964844 C 11.511719 5.964844 11.496094 5.96875 11.480469 5.976562 C 11.480469 5.976562 11.480469 5.976562 11.476562 5.976562 C 11.464844 5.980469 11.449219 5.988281 11.4375 5.992188 C 11.433594 5.992188 11.429688 5.996094 11.429688 5.996094 C 11.414062 6.003906 11.402344 6.011719 11.390625 6.019531 C 11.390625 6.019531 11.386719 6.023438 11.386719 6.023438 C 10.527344 6.652344 9.8125 7.488281 9.324219 8.433594 C 8.820312 9.410156 8.550781 10.511719 8.550781 11.621094 C 8.550781 11.996094 8.582031 12.375 8.640625 12.746094 C 8.671875 12.925781 8.839844 13.046875 9.019531 13.015625 C 9.199219 12.988281 9.320312 12.820312 9.289062 12.640625 C 9.234375 12.304688 9.207031 11.960938 9.207031 11.621094 C 9.207031 11.269531 9.238281 10.921875 9.292969 10.582031 L 11.253906 12.789062 L 11.253906 16.261719 C 10.707031 15.761719 10.25 15.167969 9.910156 14.515625 C 9.828125 14.355469 9.628906 14.289062 9.46875 14.375 C 9.308594 14.457031 9.246094 14.65625 9.328125 14.816406 C 9.816406 15.757812 10.527344 16.589844 11.386719 17.21875 C 11.386719 17.21875 11.386719 17.21875 11.390625 17.222656 C 11.402344 17.230469 11.414062 17.238281 11.429688 17.246094 C 11.429688 17.246094 11.433594 17.246094 11.433594 17.25 C 11.449219 17.253906 11.460938 17.261719 11.476562 17.265625 C 11.476562 17.265625 11.480469 17.265625 11.480469 17.265625 C 11.496094 17.269531 11.507812 17.273438 11.523438 17.277344 C 11.527344 17.277344 11.53125 17.277344 11.535156 17.277344 C 11.550781 17.28125 11.566406 17.28125 11.582031 17.28125 C 11.597656 17.28125 11.613281 17.28125 11.625 17.277344 C 11.628906 17.277344 11.632812 17.277344 11.636719 17.277344 C 11.652344 17.273438 11.667969 17.269531 11.679688 17.265625 C 11.683594 17.265625 11.683594 17.265625 11.683594 17.265625 C 11.699219 17.261719 11.710938 17.253906 11.726562 17.25 C 11.726562 17.246094 11.730469 17.246094 11.730469 17.246094 C 11.746094 17.238281 11.757812 17.230469 11.773438 17.222656 C 11.773438 17.21875 11.773438 17.21875 11.773438 17.21875 C 12.632812 16.585938 13.347656 15.753906 13.835938 14.808594 C 14.296875 13.917969 14.558594 12.921875 14.601562 11.914062 C 14.628906 11.847656 14.628906 11.773438 14.609375 11.703125 C 14.609375 11.675781 14.609375 11.648438 14.609375 11.621094 C 14.609375 10.578125 14.375 9.542969 13.925781 8.613281 Z M 11.910156 10.949219 L 13.519531 9.335938 C 13.804688 10.054688 13.953125 10.832031 13.953125 11.621094 C 13.953125 11.640625 13.953125 11.660156 13.953125 11.679688 L 11.910156 13.722656 Z M 13.230469 8.699219 L 11.910156 10.019531 L 11.910156 6.980469 C 12.449219 7.476562 12.894531 8.058594 13.230469 8.699219 Z M 9.480469 9.800781 C 9.804688 8.726562 10.417969 7.75 11.253906 6.980469 L 11.253906 11.800781 Z M 11.910156 16.261719 L 11.910156 14.652344 L 13.859375 12.703125 C 13.621094 14.0625 12.933594 15.320312 11.910156 16.261719 Z M 11.910156 16.261719 "/>
<path style=" stroke:none;fill-rule:nonzero;fill:rgb(27.843137%,27.843137%,27.843137%);fill-opacity:1;" d="M 9.460938 13.808594 C 9.472656 13.792969 9.484375 13.773438 9.492188 13.753906 C 9.5 13.734375 9.507812 13.710938 9.511719 13.691406 C 9.515625 13.667969 9.515625 13.648438 9.515625 13.625 C 9.515625 13.605469 9.515625 13.582031 9.511719 13.5625 C 9.507812 13.542969 9.5 13.519531 9.492188 13.5 C 9.484375 13.480469 9.472656 13.460938 9.460938 13.445312 C 9.449219 13.425781 9.4375 13.410156 9.421875 13.394531 C 9.34375 13.320312 9.230469 13.285156 9.125 13.304688 C 9.105469 13.308594 9.082031 13.316406 9.0625 13.324219 C 9.042969 13.332031 9.023438 13.34375 9.007812 13.355469 C 8.988281 13.367188 8.972656 13.378906 8.957031 13.394531 C 8.941406 13.410156 8.929688 13.425781 8.914062 13.445312 C 8.902344 13.460938 8.894531 13.480469 8.886719 13.5 C 8.878906 13.519531 8.871094 13.542969 8.867188 13.5625 C 8.863281 13.582031 8.859375 13.605469 8.859375 13.625 C 8.859375 13.648438 8.863281 13.667969 8.867188 13.691406 C 8.871094 13.710938 8.878906 13.734375 8.886719 13.753906 C 8.894531 13.773438 8.902344 13.792969 8.914062 13.808594 C 8.929688 13.828125 8.941406 13.84375 8.957031 13.859375 C 8.972656 13.875 8.988281 13.886719 9.007812 13.898438 C 9.023438 13.910156 9.042969 13.921875 9.0625 13.929688 C 9.082031 13.9375 9.105469 13.945312 9.125 13.949219 C 9.144531 13.953125 9.167969 13.953125 9.1875 13.953125 C 9.273438 13.953125 9.359375 13.921875 9.421875 13.859375 C 9.4375 13.84375 9.449219 13.828125 9.460938 13.808594 Z M 9.460938 13.808594 "/>
</g>
</svg>
