<svg version="1.1" viewBox="0.0 0.0 37.79527559055118 7.559055118110236" fill="none" stroke="none" stroke-linecap="square" stroke-miterlimit="10" xmlns:xlink="http://www.w3.org/1999/xlink" xmlns="http://www.w3.org/2000/svg"><clipPath id="p.0"><path d="m0 0l37.795277 0l0 7.5590553l-37.795277 0l0 -7.5590553z" clip-rule="nonzero"/></clipPath><g clip-path="url(#p.0)"><path fill="#000000" fill-opacity="0.0" d="m0 0l37.795277 0l0 7.5590553l-37.795277 0z" fill-rule="evenodd"/><path fill="#000000" fill-opacity="0.0" d="m0 0l37.795277 0l0 7.5590553l-37.795277 0z" fill-rule="evenodd"/><path fill="#000000" d="m3.6096516 5.5755277q-0.09375 0 -0.171875 -0.0625q-0.0625 -0.078125 -0.0625 -0.171875l0 -4.21875q0 -0.09375 0.0625 -0.15625q0.078125 -0.078125 0.171875 -0.078125q0.15625 0 0.21875 0.125l2.015625 4.015625l-0.203125 0l1.984375 -4.015625q0.078125 -0.125 0.21875 -0.125q0.09375 0 0.15625 0.078125q0.0625 0.0625 0.0625 0.15625l0 4.21875q0 0.09375 -0.0625 0.171875q-0.0625 0.0625 -0.15625 0.0625q-0.109375 0 -0.1875 -0.0625q-0.0625 -0.078125 -0.0625 -0.171875l0 -3.609375l0.109375 0l-1.765625 3.625q-0.078125 0.109375 -0.203125 0.109375q-0.15625 0 -0.21875 -0.140625l-1.78125 -3.5625l0.109375 -0.03125l0 3.609375q0 0.09375 -0.0625 0.171875q-0.0625 0.0625 -0.171875 0.0625zm5.9329224 0q-0.109375 0 -0.171875 -0.0625q-0.0625 -0.0625 -0.0625 -0.171875l0 -2.8125q0 -0.109375 0.0625 -0.171875q0.0625 -0.0625 0.171875 -0.0625q0.09375 0 0.15625 0.0625q0.0625 0.0625 0.0625 0.171875l0 2.8125q0 0.109375 -0.0625 0.171875q-0.0625 0.0625 -0.15625 0.0625zm-0.015625 -3.90625q-0.140625 0 -0.234375 -0.09375q-0.09375 -0.09375 -0.09375 -0.234375q0 -0.15625 0.09375 -0.234375q0.109375 -0.09375 0.234375 -0.09375q0.125 0 0.21875 0.09375q0.109375 0.078125 0.109375 0.234375q0 0.140625 -0.09375 0.234375q-0.09375 0.09375 -0.234375 0.09375zm4.234009 3.90625q-0.109375 0 -0.171875 -0.0625q-0.0625 -0.0625 -0.0625 -0.171875l0 -1.546875q0 -0.375 -0.140625 -0.609375q-0.140625 -0.25 -0.390625 -0.359375q-0.234375 -0.125 -0.546875 -0.125q-0.296875 0 -0.53125 0.109375q-0.234375 0.109375 -0.375 0.3125q-0.140625 0.203125 -0.140625 0.453125l-0.328125 0q0.015625 -0.375 0.203125 -0.671875q0.1875 -0.296875 0.5 -0.46875q0.328125 -0.171875 0.71875 -0.171875q0.421875 0 0.75 0.171875q0.34375 0.171875 0.53125 0.515625q0.203125 0.34375 0.203125 0.84375l0 1.546875q0 0.109375 -0.0625 0.171875q-0.0625 0.0625 -0.15625 0.0625zm-2.578125 0q-0.109375 0 -0.171875 -0.0625q-0.0625 -0.0625 -0.0625 -0.171875l0 -2.8125q0 -0.109375 0.0625 -0.171875q0.0625 -0.0625 0.171875 -0.0625q0.09375 0 0.15625 0.0625q0.0625 0.0625 0.0625 0.171875l0 2.8125q0 0.109375 -0.0625 0.171875q-0.0625 0.0625 -0.15625 0.0625zm4.155777 0q-0.109375 0 -0.171875 -0.0625q-0.0625 -0.0625 -0.0625 -0.171875l0 -2.8125q0 -0.109375 0.0625 -0.171875q0.0625 -0.0625 0.171875 -0.0625q0.09375 0 0.15625 0.0625q0.0625 0.0625 0.0625 0.171875l0 2.8125q0 0.109375 -0.0625 0.171875q-0.0625 0.0625 -0.15625 0.0625zm-0.015625 -3.90625q-0.140625 0 -0.234375 -0.09375q-0.09375 -0.09375 -0.09375 -0.234375q0 -0.15625 0.09375 -0.234375q0.109375 -0.09375 0.234375 -0.09375q0.125 0 0.21875 0.09375q0.109375 0.078125 0.109375 0.234375q0 0.140625 -0.09375 0.234375q-0.09375 0.09375 -0.234375 0.09375zm5.843384 3.90625q-0.09375 0 -0.171875 -0.0625q-0.0625 -0.0625 -0.0625 -0.171875l0 -1.71875q0 -0.421875 -0.21875 -0.671875q-0.21875 -0.25 -0.5625 -0.25q-0.375 0 -0.609375 0.25q-0.234375 0.25 -0.234375 0.65625l-0.421875 0q0.015625 -0.40625 0.171875 -0.703125q0.171875 -0.3125 0.46875 -0.46875q0.296875 -0.171875 0.671875 -0.171875q0.34375 0 0.609375 0.171875q0.28125 0.15625 0.4375 0.46875q0.15625 0.296875 0.15625 0.71875l0 1.71875q0 0.109375 -0.0625 0.171875q-0.0625 0.0625 -0.171875 0.0625zm-4.1875 0q-0.109375 0 -0.171875 -0.0625q-0.0625 -0.0625 -0.0625 -0.171875l0 -2.8125q0 -0.109375 0.0625 -0.171875q0.0625 -0.0625 0.171875 -0.0625q0.09375 0 0.15625 0.0625q0.0625 0.0625 0.0625 0.171875l0 2.8125q0 0.109375 -0.0625 0.171875q-0.0625 0.0625 -0.15625 0.0625zm2.09375 0q-0.09375 0 -0.171875 -0.0625q-0.0625 -0.0625 -0.0625 -0.171875l0 -1.71875q0 -0.421875 -0.21875 -0.671875q-0.21875 -0.25 -0.5625 -0.25q-0.375 0 -0.625 0.25q-0.234375 0.234375 -0.234375 0.625l-0.328125 0q0.015625 -0.390625 0.171875 -0.6875q0.15625 -0.296875 0.421875 -0.453125q0.28125 -0.171875 0.640625 -0.171875q0.34375 0 0.609375 0.171875q0.28125 0.15625 0.4375 0.46875q0.15625 0.296875 0.15625 0.71875l0 1.71875q0 0.109375 -0.0625 0.171875q-0.0625 0.0625 -0.171875 0.0625zm4.7914124 0.03125q-0.453125 0 -0.828125 -0.21875q-0.359375 -0.21875 -0.578125 -0.59375q-0.21875 -0.375 -0.21875 -0.859375q0 -0.484375 0.21875 -0.859375q0.21875 -0.375 0.59375 -0.59375q0.390625 -0.21875 0.859375 -0.21875q0.484375 0 0.859375 0.21875q0.375 0.21875 0.59375 0.59375q0.21875 0.375 0.21875 0.859375l-0.1875 0.140625q0 0.4375 -0.203125 0.78125q-0.203125 0.34375 -0.546875 0.546875q-0.34375 0.203125 -0.78125 0.203125zm0.046875 -0.421875q0.34375 0 0.609375 -0.15625q0.28125 -0.171875 0.4375 -0.453125q0.171875 -0.28125 0.171875 -0.640625q0 -0.359375 -0.171875 -0.640625q-0.15625 -0.28125 -0.4375 -0.4375q-0.265625 -0.171875 -0.609375 -0.171875q-0.34375 0 -0.625 0.171875q-0.265625 0.15625 -0.4375 0.4375q-0.15625 0.28125 -0.15625 0.640625q0 0.359375 0.15625 0.640625q0.171875 0.28125 0.4375 0.453125q0.28125 0.15625 0.625 0.15625zm1.4375 0.390625q-0.109375 0 -0.171875 -0.0625q-0.0625 -0.0625 -0.0625 -0.171875l0 -1.015625l0.109375 -0.484375l0.359375 0.09375l0 1.40625q0 0.109375 -0.078125 0.171875q-0.0625 0.0625 -0.15625 0.0625zm1.843277 0q-0.234375 0 -0.4375 -0.125q-0.1875 -0.140625 -0.296875 -0.375q-0.09375 -0.234375 -0.09375 -0.53125l0 -3.421875q0 -0.109375 0.0625 -0.171875q0.0625 -0.0625 0.15625 -0.0625q0.109375 0 0.171875 0.0625q0.0625 0.0625 0.0625 0.171875l0 3.421875q0 0.25 0.109375 0.421875q0.109375 0.15625 0.265625 0.15625l0.140625 0q0.09375 0 0.140625 0.0625q0.0625 0.0625 0.0625 0.15625q0 0.109375 -0.078125 0.171875q-0.0625 0.0625 -0.1875 0.0625l-0.078125 0zm1.3170166 0q-0.109375 0 -0.171875 -0.0625q-0.0625 -0.0625 -0.0625 -0.171875l0 -2.8125q0 -0.109375 0.0625 -0.171875q0.0625 -0.0625 0.171875 -0.0625q0.09375 0 0.15625 0.0625q0.0625 0.0625 0.0625 0.171875l0 2.8125q0 0.109375 -0.0625 0.171875q-0.0625 0.0625 -0.15625 0.0625zm-0.015625 -3.90625q-0.140625 0 -0.234375 -0.09375q-0.09375 -0.09375 -0.09375 -0.234375q0 -0.15625 0.09375 -0.234375q0.109375 -0.09375 0.234375 -0.09375q0.125 0 0.21875 0.09375q0.109375 0.078125 0.109375 0.234375q0 0.140625 -0.09375 0.234375q-0.09375 0.09375 -0.234375 0.09375zm2.5621338 3.9375q-0.359375 0 -0.703125 -0.109375q-0.34375 -0.125 -0.5625 -0.375q-0.0625 -0.0625 -0.0625 -0.15625q0.015625 -0.09375 0.09375 -0.15625q0.09375 -0.0625 0.171875 -0.046875q0.09375 0.015625 0.15625 0.078125q0.140625 0.171875 0.375 0.265625q0.234375 0.078125 0.53125 0.078125q0.4375 0 0.640625 -0.15625q0.203125 -0.15625 0.203125 -0.359375q0 -0.21875 -0.203125 -0.359375q-0.203125 -0.140625 -0.671875 -0.21875q-0.609375 -0.09375 -0.890625 -0.328125q-0.28125 -0.25 -0.28125 -0.578125q0 -0.3125 0.15625 -0.515625q0.171875 -0.203125 0.4375 -0.296875q0.265625 -0.109375 0.59375 -0.109375q0.40625 0 0.6875 0.140625q0.2968731 0.140625 0.4843731 0.375q0.046875 0.078125 0.03125 0.15625q0 0.078125 -0.078125 0.140625q-0.078125 0.046875 -0.1718731 0.03125q-0.09375 -0.015625 -0.15625 -0.09375q-0.15625 -0.171875 -0.359375 -0.25q-0.1875 -0.078125 -0.453125 -0.078125q-0.328125 0 -0.53125 0.140625q-0.1875 0.125 -0.1875 0.328125q0 0.140625 0.078125 0.25q0.078125 0.09375 0.25 0.171875q0.1875 0.078125 0.515625 0.125q0.453125 0.078125 0.703125 0.21875q0.2656231 0.140625 0.3749981 0.328125q0.109375 0.1875 0.109375 0.40625q0 0.28125 -0.171875 0.5q-0.15625 0.21875 -0.4531231 0.34375q-0.28125 0.109375 -0.65625 0.109375zm3.3746471 -0.03125q-0.328125 0 -0.578125 -0.140625q-0.234375 -0.15625 -0.390625 -0.421875q-0.140625 -0.265625 -0.140625 -0.59375l0 -2.9375q0 -0.09375 0.0625 -0.15625q0.0625 -0.078125 0.171875 -0.078125q0.09375 0 0.15625 0.078125q0.078125 0.0625 0.078125 0.15625l0 2.9375q0 0.296875 0.171875 0.5q0.1875 0.1875 0.46875 0.1875l0.15625 0q0.09375 0 0.15625 0.078125q0.0625 0.0625 0.0625 0.15625q0 0.109375 -0.078125 0.171875q-0.0625 0.0625 -0.171875 0.0625l-0.125 0zm-1.5 -2.765625q-0.09375 0 -0.15625 -0.046875q-0.046875 -0.0625 -0.046875 -0.140625q0 -0.09375 0.046875 -0.140625q0.0625 -0.0625 0.15625 -0.0625l1.53125 0q0.09375 0 0.140625 0.0625q0.0625 0.046875 0.0625 0.140625q0 0.078125 -0.0625 0.140625q-0.046875 0.046875 -0.140625 0.046875l-1.53125 0z" fill-rule="nonzero"/></g></svg>