<?xml version="1.0" standalone="no"?>
<!DOCTYPE svg PUBLIC "-//W3C//DTD SVG 20010904//EN"
 "http://www.w3.org/TR/2001/REC-SVG-20010904/DTD/svg10.dtd">
<svg version="1.0" xmlns="http://www.w3.org/2000/svg"
 width="375.000000pt" height="75.000000pt" viewBox="0 0 375.000000 75.000000"
 preserveAspectRatio="xMidYMid meet">

<g transform="translate(0.000000,75.000000) scale(0.100000,-0.100000)"
fill="#000000" stroke="none">
<path d="M487 613 c-11 -11 -8 -278 4 -311 14 -40 63 -62 86 -39 18 18 10 37
-17 37 -27 0 -30 18 -30 176 0 133 -1 144 -18 144 -10 0 -22 -3 -25 -7z"/>
<path d="M950 606 c-18 -22 -5 -48 22 -44 17 2 23 10 23 28 0 29 -26 38 -45
16z"/>
<path d="M2137 613 c-4 -3 -7 -84 -7 -179 0 -174 3 -189 38 -177 8 3 12 30 12
89 0 98 16 124 74 124 56 0 76 -35 76 -131 0 -80 9 -100 37 -78 12 11 14 29
11 95 -5 95 -22 128 -76 151 -33 14 -41 14 -79 1 l-43 -16 0 64 c0 55 -2 64
-18 64 -10 0 -22 -3 -25 -7z"/>
<path d="M683 500 c-54 -24 -77 -66 -71 -132 9 -93 93 -143 170 -100 27 15 38
17 38 7 0 -15 19 -24 38 -18 21 8 16 152 -8 190 -38 62 -101 83 -167 53z m112
-55 c68 -67 -12 -182 -97 -139 -29 15 -52 70 -42 100 23 65 94 85 139 39z"/>
<path d="M1185 513 c-11 -3 -26 -10 -34 -17 -11 -8 -15 -8 -18 2 -3 6 -13 12
-24 12 -19 0 -19 -7 -17 -127 3 -106 6 -128 18 -128 12 0 16 19 20 87 6 101
22 128 77 128 57 0 73 -26 73 -124 0 -86 6 -101 34 -90 13 5 16 22 16 86 0 84
-16 134 -48 154 -23 15 -72 23 -97 17z"/>
<path d="M1484 509 c-16 -5 -41 -20 -55 -35 -20 -22 -24 -36 -24 -89 0 -53 4
-68 24 -89 46 -48 126 -57 179 -20 18 12 20 19 12 29 -9 11 -17 11 -47 -1 -21
-9 -47 -13 -64 -9 -30 7 -73 51 -63 66 3 5 48 9 100 9 l94 0 0 30 c0 37 -24
86 -48 98 -29 15 -75 20 -108 11z m97 -60 c33 -33 19 -44 -60 -44 -40 0 -75 3
-77 6 -2 4 6 18 17 33 26 34 89 36 120 5z"/>
<path d="M1926 509 c-112 -32 -126 -194 -21 -243 42 -20 78 -20 115 -1 51 26
35 66 -16 41 -60 -30 -124 13 -124 81 0 67 84 109 131 67 20 -18 53 -12 47 8
-6 17 -49 45 -78 51 -14 3 -38 1 -54 -4z"/>
<path d="M2536 509 c-67 -19 -105 -91 -85 -163 22 -81 95 -115 169 -78 30 14
40 16 40 6 0 -20 19 -27 37 -13 21 18 14 156 -10 193 -32 48 -94 71 -151 55z
m94 -57 c13 -10 23 -33 27 -58 11 -86 -88 -135 -143 -70 -13 15 -24 38 -24 52
0 30 24 80 42 87 28 12 77 6 98 -11z"/>
<path d="M2860 509 c-20 -4 -47 -21 -62 -38 -23 -26 -28 -40 -28 -85 0 -44 5
-60 25 -85 45 -53 132 -65 177 -24 13 12 15 20 7 29 -8 10 -17 10 -45 -2 -81
-34 -151 45 -110 124 23 45 80 57 124 26 23 -16 42 -12 42 10 0 32 -72 57
-130 45z"/>
<path d="M3145 509 c-77 -22 -116 -116 -78 -189 41 -79 153 -91 212 -24 62 70
31 189 -57 214 -20 5 -39 10 -42 9 -3 0 -19 -5 -35 -10z m95 -59 c43 -43 33
-118 -21 -146 -83 -42 -161 75 -94 141 31 31 86 34 115 5z"/>
<path d="M3470 504 c-22 -10 -36 -11 -38 -4 -2 5 -12 10 -23 10 -18 0 -19 -8
-19 -124 0 -79 4 -127 11 -132 20 -12 27 10 32 94 5 96 21 122 74 122 56 0 73
-27 73 -119 0 -78 14 -112 40 -96 14 9 13 168 -2 199 -23 52 -91 75 -148 50z"/>
<path d="M231 484 c-45 -38 -58 -92 -37 -148 19 -50 48 -73 103 -82 46 -7 113
17 113 40 0 19 -29 21 -64 5 -31 -14 -70 -5 -96 23 -39 42 -28 48 80 48 l100
0 0 25 c0 34 -24 80 -52 99 -36 26 -111 21 -147 -10z m131 -31 c10 -9 18 -23
18 -32 0 -13 -13 -16 -72 -16 -78 0 -92 11 -59 44 26 26 87 28 113 4z"/>
<path d="M950 386 c0 -119 8 -153 30 -130 11 12 24 195 16 228 -4 17 -13 26
-26 26 -19 0 -20 -7 -20 -124z"/>
<path d="M71 296 c-17 -20 -3 -46 24 -46 29 0 38 13 30 40 -7 23 -37 26 -54 6z"/>
</g>
</svg>
